<?xml version="1.0" encoding="utf-8"?><svg xmlns="http://www.w3.org/2000/svg" viewBox="0 0 165.1 165.1"><path fill="#231F20" d="M159.5 5.5v154H5.5V5.5h154m5.6-5.5H0v165h165V0h.1z"/><path d="M49 81h12l12.6 38.4h.1L86.4 81h12l-18.5 51.3H67.4L49 81zm55.2-3.6H115v9.2h-10.8v-9.2zm0 16.2H115v38.7h-10.8V93.6zM47.3 57.3h5.1V45.2L48.3 47l-1.4-3 6.6-2.9h3.1v16.3H61v3.1H47.3v-3.2zm24.4-16.6c5 0 8 4 8 10s-3 10-8 10-8-4.1-8-10 3-10 8-10zm0 16.6c2.5 0 3.9-2.4 3.9-6.6s-1.4-6.6-3.9-6.6-3.9 2.4-3.9 6.6 1.4 6.6 3.9 6.6zM91 40.7c5 0 8 4 8 10s-3 10-8 10-8-4.1-8-10 3-10 8-10zm0 16.6c2.5 0 3.9-2.4 3.9-6.6s-1.4-6.6-3.9-6.6-3.9 2.4-3.9 6.6 1.4 6.6 3.9 6.6zm11.7-11.8c0-2.8 2.2-4.6 5-4.6s5 1.7 5 4.6c0 2.8-2.1 4.7-5 4.7-2.8-.1-5-1.9-5-4.7zm16.1-4.4h2.9l-14 19.3h-3l14.1-19.3zm-9.2 4.4c0-1.3-.7-2.2-1.8-2.2s-1.9.9-1.9 2.2c0 1.3.6 2.2 1.9 2.2 1.2-.1 1.8-.9 1.8-2.2zm4.3 10.4c0-2.8 2.2-4.6 5-4.6s5 1.7 5 4.6c0 2.8-2.1 4.7-5 4.7s-5-1.8-5-4.7zm6.8 0c0-1.3-.7-2.2-1.8-2.2s-1.9.9-1.9 2.2c0 1.3.7 2.2 1.9 2.2s1.8-.9 1.8-2.2z" fill="#231F20"/></svg>