<?xml version="1.0" encoding="utf-8"?><svg xmlns="http://www.w3.org/2000/svg" viewBox="0 0 165.1 165.1"><path fill="#231F20" d="M159.5 5.5v154H5.5V5.5h154m5.6-5.5H0v165h165V0h.1z"/><path d="M61.1 81h12.6l18.5 51.3H80.3l-3.2-9.6H57.6l-3.1 9.6H42.6L61.1 81zm-.7 33.1h13.8l-6.9-20.8h-.1l-6.8 20.8zM98 93h9.9l.7 6.1c3-5.3 6.7-7.2 11.2-7.2 1.8 0 3.5.3 4.8.8l-1.5 9.8c-1.4-.5-3.1-.9-5.3-.9-4 0-6.7 2.5-9.2 7v23.7H98V93zM45.3 57.2h5.3V44.3l-4.4 1.9-1.5-3.1 7-3.1H55v17.2h4.7v3.2H45.3v-3.2zM71 39.6c5.3 0 8.5 4.3 8.5 10.5 0 6.3-3.2 10.6-8.5 10.6s-8.5-4.3-8.5-10.6c0-6.2 3.2-10.5 8.5-10.5zm0 17.5c2.7 0 4.1-2.6 4.1-7s-1.5-6.9-4.1-6.9c-2.6 0-4.1 2.5-4.1 6.9s1.4 7 4.1 7zm20.4-17.5c5.3 0 8.5 4.3 8.5 10.5 0 6.3-3.2 10.6-8.5 10.6s-8.5-4.3-8.5-10.6c0-6.2 3.2-10.5 8.5-10.5zm0 17.5c2.7 0 4.1-2.6 4.1-7s-1.5-6.9-4.1-6.9c-2.6 0-4.1 2.5-4.1 6.9s1.4 7 4.1 7zm12.3-12.5c0-3 2.3-4.8 5.3-4.8 2.9 0 5.3 1.8 5.3 4.8s-2.2 4.9-5.3 4.9c-3 .1-5.3-1.9-5.3-4.9zm17-4.6h3.1L109 60.4h-3.1L120.7 40zm-9.8 4.6c0-1.3-.7-2.3-1.9-2.3s-2 .9-2 2.3.7 2.3 2 2.3 1.9-.9 1.9-2.3zm4.6 11.1c0-3 2.3-4.8 5.3-4.8 2.9 0 5.3 1.8 5.3 4.8s-2.2 4.9-5.3 4.9c-3.1 0-5.3-1.9-5.3-4.9zm7.2 0c0-1.4-.7-2.3-1.9-2.3s-2 .9-2 2.3.7 2.3 2 2.3c1.2 0 1.9-.9 1.9-2.3z" fill="#231F20"/></svg>