<?xml version="1.0" encoding="utf-8"?><svg xmlns="http://www.w3.org/2000/svg" viewBox="0 0 179.1 179.1"><path fill="#06292F" d="M173.1 173.1H6V6h167.1v167.1zm6-173.1H0v179.1h179.1V0z"/><path d="M45.9 87.9h23.3c16 0 21.5 8.7 21.5 17.6 0 8.8-5.6 17.8-21.4 17.8H58v20.2H45.9V87.9zM69.1 114c6.5 0 9.5-3.6 9.5-8.3 0-4.8-3.1-8.2-9.5-8.2H58V114h11.1zm47.7-14.1c12.2 0 21.3 8.7 21.3 21.9 0 14.1-8.6 22.7-21.3 22.7-12.9 0-21.5-8.7-21.5-22.7-.1-13.2 9.2-21.9 21.5-21.9zm0 35.9c6 0 9.5-5.5 9.5-13.9 0-7.9-3.8-13.1-9.5-13.1-5.9 0-9.8 5.2-9.8 13.1 0 8.4 3.5 13.9 9.8 13.9zM49.1 62h5.8V48.1l-4.8 2-1.6-3.4 7.6-3.3h3.6V62h5.1v3.6H49.1zM77 43c5.7 0 9.2 4.6 9.2 11.4 0 6.8-3.5 11.5-9.2 11.5s-9.2-4.7-9.2-11.5S71.3 43 77 43zm0 19c2.9 0 4.5-2.8 4.5-7.6s-1.6-7.5-4.5-7.5-4.4 2.7-4.4 7.5S74.1 62 77 62zm22.2-19c5.7 0 9.2 4.6 9.2 11.4 0 6.8-3.5 11.5-9.2 11.5S90 61.3 90 54.4c0-6.8 3.4-11.4 9.2-11.4zm0 19c2.9 0 4.5-2.8 4.5-7.6s-1.6-7.5-4.5-7.5-4.4 2.7-4.4 7.5 1.5 7.6 4.4 7.6zm13.4-13.6c0-3.3 2.5-5.3 5.8-5.3 3.2 0 5.7 2 5.7 5.3s-2.4 5.4-5.7 5.4c-3.4 0-5.8-2.1-5.8-5.4zm18.4-5h3.4l-16.1 22.2h-3.4L131 43.4zm-10.6 5c0-1.5-.8-2.5-2.1-2.5s-2.1 1-2.1 2.5.7 2.5 2.1 2.5c1.4 0 2.1-1 2.1-2.5zm4.9 12c0-3.3 2.5-5.3 5.7-5.3s5.7 2 5.7 5.3-2.4 5.4-5.7 5.4c-3.3 0-5.7-2.1-5.7-5.4zm7.8 0c0-1.5-.8-2.5-2.1-2.5s-2.1 1-2.1 2.5.8 2.5 2.1 2.5 2.1-1 2.1-2.5z" fill="#06292F"/></svg>