<?xml version="1.0" encoding="utf-8"?><svg xmlns="http://www.w3.org/2000/svg" viewBox="0 0 165.2 165.2"><path fill="#231F20" d="M159.6 5.6v154H5.6V5.6h154m5.6-5.6H0v165.2h165.2V0z"/><path d="M66.1 80.2c7.1 0 13.3 2.3 18.6 6.5l-6 7.6c-3.6-2.9-7.4-4.8-12.4-4.8-9.5 0-15.7 6.7-15.7 16.8 0 10.5 6.1 17.4 15.7 17.4 5.1 0 9.2-2 12.7-5.3l6.6 7c-5.5 5.1-11.9 7.7-19.8 7.7-15.7 0-26.4-11.2-26.4-26.8-.1-15 11-26.1 26.7-26.1zm42.6 12c11.2 0 19.6 8 19.6 20.1 0 13-7.9 20.9-19.6 20.9-11.9 0-19.8-8-19.8-20.9-.1-12.2 8.4-20.1 19.8-20.1zm0 33c5.6 0 8.8-5.1 8.8-12.8 0-7.3-3.5-12.1-8.8-12.1-5.4 0-9 4.8-9 12.1 0 7.7 3.2 12.8 9 12.8zm-63.4-68h5.3V44.4l-4.4 1.9-1.5-3.1 7-3.1H55v17.2h4.7v3.2H45.3v-3.3zM71 39.7c5.3 0 8.5 4.3 8.5 10.5 0 6.3-3.2 10.6-8.5 10.6s-8.5-4.3-8.5-10.6c.1-6.2 3.2-10.5 8.5-10.5zm0 17.5c2.7 0 4.1-2.6 4.1-7s-1.5-6.9-4.1-6.9c-2.6 0-4.1 2.5-4.1 6.9s1.5 7 4.1 7zm20.4-17.5c5.3 0 8.5 4.3 8.5 10.5 0 6.3-3.2 10.6-8.5 10.6s-8.5-4.3-8.5-10.6c.1-6.2 3.3-10.5 8.5-10.5zm0 17.5c2.7 0 4.1-2.6 4.1-7s-1.5-6.9-4.1-6.9c-2.6 0-4.1 2.5-4.1 6.9.1 4.4 1.5 7 4.1 7zm12.4-12.5c0-3 2.3-4.8 5.3-4.8 2.9 0 5.3 1.8 5.3 4.8s-2.2 4.9-5.3 4.9c-3 0-5.3-1.9-5.3-4.9zm17-4.6h3.1l-14.8 20.4H106l14.8-20.4zm-9.8 4.6c0-1.3-.7-2.3-1.9-2.3s-2 .9-2 2.3.7 2.3 2 2.3 1.9-.9 1.9-2.3zm4.5 11.1c0-3 2.3-4.8 5.3-4.8 2.9 0 5.3 1.8 5.3 4.8s-2.2 4.9-5.3 4.9c-3 0-5.3-1.9-5.3-4.9zm7.2 0c0-1.4-.7-2.3-1.9-2.3s-2 .9-2 2.3.7 2.3 2 2.3 1.9-1 1.9-2.3z" fill="#231F20"/></svg>