<?xml version="1.0" encoding="utf-8"?><svg xmlns="http://www.w3.org/2000/svg" viewBox="0 0 178 176.9"><path fill="#06292F" d="M.9 99.3C-5.8 51.7 27.4 7.6 74.9.8c30.6-4.3 60.4 7.4 79.9 31.4l-4.3 3.4C132.3 13.3 104.3 2.2 75.7 6.3 31.1 12.6 0 54 6.3 98.6l-5.4.7z"/><path fill="#06292F" d="M123.5 36l.4-5.5 27 2.3.3-27h5.4l-.3 32.9zM90.7 176.9c-27.3 0-52.8-12.6-69.5-34.9l4.4-3.3c17.4 23.2 44.9 35.2 73.7 32.2 21.7-2.2 41.2-12.8 55-29.7 13.8-16.9 20.1-38.2 17.9-59.9l5.5-.6c4.9 47.8-29.9 90.7-77.7 95.6-3.3.4-6.3.6-9.3.6z"/><path fill="#06292F" d="M52.6 139.5l-.6 5.4-26.9-3.3-1.3 27-5.5-.3 1.7-32.8zm-4.9-44.1c2.5 1.2 5.5 2.2 8.4 2.2 5.1 0 8.5-2.2 8.5-5.8 0-3.5-2.9-4.9-7-4.9H53v-4.3h4.5c4 0 6.1-1.6 6.1-5 0-2.6-2.4-4.6-6.6-4.6-2.7 0-5.9 1.4-8.3 3.4l-2.9-3.6c3.2-2.5 6.8-4.3 11.5-4.3 7 0 11.8 3.6 11.8 8.8 0 3.5-1.9 5.8-4.9 7.1 3.9 1.4 6.1 3.8 6.1 7.7 0 6.5-6.4 10.1-14 10.1-3.8 0-7.5-1.1-10.5-2.5l1.9-4.3zm42.2-26.9c3.1 0 5.9.7 8.7 2l-2.1 3.9c-1.9-.9-4-1.5-6.5-1.5-4.7 0-8.7 3.3-9.2 10.8 2.2-1.9 5.3-3.2 8.5-3.2 6.3 0 10.8 4 10.8 10.5 0 5.8-4.4 11-12 11-9.2 0-12.9-7.3-12.9-15.8 0-12.7 7.1-17.7 14.7-17.7zm-1.7 29.2c4.1 0 6.4-3 6.4-6.5 0-3.8-2.5-6.4-6.3-6.4-3.2 0-5.8 1.5-7.6 3.3.3 5.7 2.7 9.6 7.5 9.6zm31-29.2c8.4 0 15 6.2 15 16.8 0 10.6-6.5 16.8-14.9 16.8s-15-6.2-15-16.8c0-10.6 6.5-16.8 14.9-16.8zm0 28.9c5.5 0 9.4-4.7 9.4-12.1 0-7.4-3.9-12.1-9.5-12.1-5.5 0-9.4 4.7-9.4 12.1.1 7.4 4 12.1 9.5 12.1zm17.5-27.7c0-2.9 2.4-5.1 5.3-5.1s5.3 2.2 5.3 5.1c0 2.9-2.4 5-5.3 5-3 0-5.3-2.1-5.3-5zm8.1 0c0-1.6-1.2-2.8-2.8-2.8-1.6 0-2.8 1.2-2.8 2.8 0 1.6 1.3 2.8 2.8 2.8 1.5 0 2.8-1.2 2.8-2.8z"/></svg>