<?xml version="1.0" encoding="utf-8"?><svg xmlns="http://www.w3.org/2000/svg" viewBox="0 0 159.6 151.4"><g fill="#231F20"><path d="M39.1 92.6c1.9-.9 3-2.2 3-4.4 0-3.4-3.1-5.6-7.7-5.6-3 0-5.4 1-7.5 2.4l2 2.9c1.6-1.1 3.3-1.8 5.1-1.8 2.3 0 3.6 1.1 3.6 2.6 0 2-1.3 2.8-3.6 2.8h-2.9v3.3h3c2.4 0 4.1.7 4.1 2.7s-1.9 3.2-4.8 3.2c-1.9 0-3.7-.6-5.4-1.4l-1.6 3.2c2.2 1.1 4.6 1.7 7.1 1.7 4.9 0 9.1-2.2 9.1-6.4.2-2.6-1-4.2-3.5-5.2zm4.1 16.9h4.2l13-28.2h-4.2zm32.2-26.6h-4.3L60.7 96.3l1.4 3.2h9.1v4.1h4.3v-4.1h2.6v-3.3h-2.6V82.9zm-4.2 13.3h-6.4l6.4-8.7v8.7z"/><path d="M114.1 0H80.6l-.4 2.3C77.2 20.7 61.5 34 42.8 34 25.2 34 5.6 21.1 5.6 2.6H0v148.8h117.1v-31h42.5V44.1L114.1 0zM154 114.8h-36.9V63.6h-5.6v82.1H5.6v-125c7.9 11.7 22.9 18.9 37.2 18.9 20.6 0 38.1-14.1 42.5-34h26.5L154 46.5v68.3z"/></g></svg>