<?xml version="1.0" encoding="utf-8"?><svg xmlns="http://www.w3.org/2000/svg" viewBox="0 0 147 153.1"><path fill="#06292F" d="M130.5 109l16.6-9.1L92 0 75.4 9.1l-26 50.1L4.4 11 0 15.1l46.5 49.7-1 1.9-33.3 18.4-4.3-7.9-5.3 2.9L17 106.4l14.5 26.3 5.3-2.9-4.3-7.9 33.4-18.4 18.3 1.5 44.9 48.1 4.4-4.1L93 105.8l37.5 3.2zM79.9 13.5l9.7-5.4 49.2 89.3-9.7 5.4-42.3-3.6-8.8-9.5 44.6 3 2.5-1.4L110.6 65 73.9 85.4 53.8 63.9l26.1-50.4zM64.5 97.4l-35 19.3-7.2-13.1-7.2-13.1 35-19.3.8-1.6 27.1 29-13.5-1.2z"/></svg>