<?xml version="1.0" encoding="utf-8"?><svg xmlns="http://www.w3.org/2000/svg" viewBox="0 0 165.2 165.2"><path fill="#231F20" d="M159.6 5.6v154H5.6V5.6h154m5.6-5.6H0v165.2h165.2V0z"/><path d="M66.1 34.5c7.1 0 13.3 2.3 18.6 6.5l-6 7.6c-3.6-2.9-7.4-4.8-12.4-4.8-9.5 0-15.7 6.7-15.7 16.8 0 10.5 6.1 17.4 15.7 17.4 5.1 0 9.2-2 12.7-5.3l6.6 7C80 85 73.7 87.5 65.7 87.5c-15.7 0-26.4-11.2-26.4-26.8 0-15.1 11.1-26.2 26.8-26.2zm42.6 11.9c11.2 0 19.6 8 19.6 20.1 0 13-7.9 20.9-19.6 20.9-11.9 0-19.8-8-19.8-20.9-.1-12.1 8.4-20.1 19.8-20.1zm0 33.1c5.6 0 8.8-5.1 8.8-12.8 0-7.3-3.5-12.1-8.8-12.1-5.4 0-9 4.8-9 12.1 0 7.7 3.2 12.8 9 12.8zm-80.2 46.1c1.5.9 3.4 1.6 5.1 1.6 1.9 0 2.8-.8 2.8-1.9 0-3.3-9.4-1.1-9.4-7.7 0-2.9 2.4-5.2 6.4-5.2 2.3 0 4.3.5 6.3 1.5l-1.4 3c-1.5-.8-3.2-1.1-4.7-1.1-1.7 0-2.7.8-2.7 1.8 0 3.2 9.4.9 9.4 7.7 0 2.9-2.2 5.2-6.7 5.2-2.6 0-5.3-.9-6.9-1.9l1.8-3zm14.6-12.8h7.3c5 0 6.7 2.7 6.7 5.5s-1.7 5.6-6.7 5.6h-3.5v6.3h-3.8v-17.4zm7.3 8.1c2 0 3-1.1 3-2.6s-1-2.6-3-2.6h-3.5v5.1h3.5zm12.6-8.1h4.3l6.3 17.4h-4l-1.1-3.3h-6.6l-1.1 3.3h-4.1l6.3-17.4zm-.2 11.2h4.7l-2.3-7.1h-.1l-2.3 7.1zm13-11.2h3.6l7.8 11.5v-11.5h3.6v17.4h-3.6l-7.8-11.4v11.4h-3.6v-17.4zm18.3 0h5.7c6.2 0 9.6 3.2 9.6 8.6 0 5.5-3.1 8.8-9.6 8.8h-5.7v-17.4zm6 14.3c3.7 0 5.5-2.2 5.5-5.7 0-3.4-2-5.6-5.5-5.6h-2.2v11.3h2.2zm12-14.3h12.7v3.3h-8.9v3.8h8v2.9h-8v4.1h9v3.3h-12.8v-17.4zm20.6 8.5l-5.7-8.5h4.6l3.7 5.6 3.7-5.6h4.5l-5.8 8.5 6 8.9h-4.5l-3.9-5.9-3.9 5.9h-4.5l5.8-8.9z" fill="#231F20"/></svg>