<?xml version="1.0" encoding="utf-8"?><svg xmlns="http://www.w3.org/2000/svg" viewBox="0 0 165.2 165.2"><path fill="#231F20" d="M159.6 5.6v154H5.6V5.6h154m5.6-5.6H0v165.2h165.2V0z"/><path d="M66.1 34.5c7.1 0 13.3 2.3 18.6 6.5l-6 7.6c-3.6-2.9-7.4-4.8-12.4-4.8-9.5 0-15.7 6.7-15.7 16.8 0 10.5 6.1 17.4 15.7 17.4 5.1 0 9.2-2 12.7-5.3l6.6 7C80 85 73.7 87.5 65.7 87.5c-15.7 0-26.4-11.2-26.4-26.8 0-15.1 11.1-26.2 26.8-26.2zm42.6 11.9c11.2 0 19.6 8 19.6 20.1 0 13-7.9 20.9-19.6 20.9-11.9 0-19.8-8-19.8-20.9-.1-12.1 8.4-20.1 19.8-20.1zm0 33.1c5.6 0 8.8-5.1 8.8-12.8 0-7.3-3.5-12.1-8.8-12.1-5.4 0-9 4.8-9 12.1 0 7.7 3.2 12.8 9 12.8zm-52 33.3h7.7c5 0 6.7 2.7 6.7 5.5 0 2-1 3.9-3.2 4.8l3.3 7.1h-4.1l-2.7-6.5h-4v6.5h-3.8v-17.4zm7.6 8.1c2 0 3-1.1 3-2.6s-1-2.6-2.9-2.6h-3.9v5.1h3.8zm9.8-8.1h3.8v17.4h-3.8v-17.4zm15.6-.3c2.4 0 4.5.8 6.3 2.2l-2 2.6c-1.2-1-2.5-1.6-4.2-1.6-3.2 0-5.3 2.3-5.3 5.7 0 3.6 2.1 5.9 5.3 5.9 1.7 0 3.1-.7 4.3-1.8l2.2 2.4c-1.9 1.7-4 2.6-6.7 2.6-5.3 0-9-3.8-9-9.1 0-5.2 3.7-8.9 9.1-8.9zm9.1.3h3.8v7h6.8v-7h3.8v17.4h-3.8V123h-6.8v7.2h-3.8v-17.4z" fill="#231F20"/></svg>