<?xml version="1.0" encoding="utf-8"?><svg xmlns="http://www.w3.org/2000/svg" viewBox="0 0 165.2 165.2"><path fill="#231F20" d="M159.6 5.6v154H5.6V5.6h154m5.6-5.6H0v165.2h165.2V0z"/><path d="M65.8 34.4c7.7 0 14.1 2.6 19.6 7.1L77.6 51c-3.1-2.6-6.4-4.7-11.6-4.7-8.1 0-13.3 5.7-13.3 14.6 0 9.1 5.1 14.8 13.3 14.8 5 0 8.6-2 11.6-4.9l8.2 8.6c-5.7 5.3-12.2 8.1-20.7 8.1-15.8 0-26.7-11.4-26.7-26.7.1-14.9 11.5-26.4 27.4-26.4zm42.7 11.2c11.7 0 20.6 8.4 20.6 20.7 0 13.2-8.3 21.3-20.6 21.3-12.4 0-20.7-8.1-20.7-21.3.1-12.3 8.9-20.7 20.7-20.7zm0 32c4.5 0 6.7-4.4 6.7-11.3 0-6.5-2.6-10.8-6.7-10.8-4.2 0-6.8 4.2-6.8 10.8 0 6.9 2.3 11.3 6.8 11.3zm-55.4 35.2h7.3c5 0 6.7 2.7 6.7 5.5s-1.7 5.6-6.7 5.6h-3.5v6.3h-3.8v-17.4zm7.3 8.1c2 0 3-1.1 3-2.6s-1-2.6-3-2.6h-3.5v5.1h3.5zm17.8-8.4c5.3 0 9 3.7 9 9s-3.7 9.1-9 9.1-9-3.8-9-9.1 3.8-9 9-9zm0 14.8c3.1 0 5.2-2.3 5.2-5.9 0-3.5-2.1-5.8-5.2-5.8s-5.2 2.3-5.2 5.8c0 3.6 2.2 5.9 5.2 5.9zM90 112.8h3.8V127h8.7v3.3H90v-17.5zm17.7 10.4l-6.5-10.4h4.4l4.1 6.7 4.1-6.7h4.3l-6.5 10.4v7h-3.8v-7z" fill="#231F20"/></svg>