<?xml version="1.0" encoding="utf-8"?><svg xmlns="http://www.w3.org/2000/svg" viewBox="0 0 154 149.9"><path fill="#231F20" d="M154 92.2H93.8L7.6 0 3.5 3.8l82.7 88.4H61.3c-2.9 0-5.9-12.9-7.5-19.9-3-13-5.6-24.2-13-24.2-7.3 0-9.9 11.2-13 24.2-1.6 6.9-4.6 19.9-7.5 19.9-2.9 0-5.9-12.9-7.5-19.9-3-13-5.6-24.2-12.9-24.2v5.6c2.9 0 5.9 12.9 7.5 19.9 3 13 5.6 24.2 12.9 24.2 7.3 0 9.9-11.2 13-24.2 1.6-6.9 4.6-19.9 7.5-19.9 2.9 0 5.9 12.9 7.5 19.9 3 13 5.6 24.2 13 24.2h30.1l48.7 52.1 4.1-3.8-45.1-48.3H154v-5.6z"/></svg>