<?xml version="1.0" encoding="utf-8"?><svg xmlns="http://www.w3.org/2000/svg" viewBox="0 0 185.2 173.7"><path fill="#06292F" d="M139.6 32.2H0V0h139.6v32.2zM5.5 26.7h128.6V5.5H5.5v21.2zm134.1 147H0v-32.2h139.6v32.2zM5.5 168.2h128.6V147H5.5v21.2z"/><path fill="#06292F" d="M117.5 146.2H22.2V27.1h95.3v119.1zm-89.9-5.5H112V32.6H27.6v108.1z"/><path fill="#06292F" d="M25.1 45.7h87.1v5.5H25.1zm0 18.8h87.1V70H25.1zm0 18.9h87.1v5.5H25.1zm0 18.9h87.1v5.5H25.1zm0 18.9h87.1v5.5H25.1z"/><path fill="none" d="M112.9 97.5c25.9-10.2 34.8 31.9 70.7 4.8"/><path fill="#05292F" d="M160.9 114.3c-8.9 0-16-4.5-22.5-8.6-8-5.1-14.9-9.5-24.5-5.7l-2-5.1c12.2-4.8 21 .8 29.5 6.2 11 7 21.3 13.6 40.5-1l3.3 4.4c-9.6 7.2-17.5 9.8-24.3 9.8z"/></svg>