<?xml version="1.0" encoding="utf-8"?><svg xmlns="http://www.w3.org/2000/svg" viewBox="0 0 151.6 156.8"><path fill="#231F20" d="M145.1 91.9c-1.6-8.7-4.8-12.6-8.1-16.7-3.7-4.5-7.5-9.1-9.3-19.2-1.9-10.2.1-15.8 1.9-21.3 1.7-5 3.3-9.7 1.7-18.5l5.5-1c1.8 10.2-.1 15.8-1.9 21.3-1.7 5-3.3 9.7-1.7 18.5 1.6 8.7 4.8 12.6 8.1 16.7 3.7 4.5 7.5 9.1 9.3 19.2l-5.5 1zm-46.4 52.2H13.1V58.4h57.3V64H18.7v74.5h74.4V92.2h5.6z"/><path fill="#231F20" d="M0 80.9h30.8v5.6H0zM0 116h30.8v5.6H0zm80.5 0h30.8v5.6H80.5zm-45-70.2h5.6v30.8h-5.6zm0 80.2h5.6v30.8h-5.6zm35.2 0h5.6v30.8h-5.6zM52 117.9l-4.2-3.6L121.6 6c3.2-3.8 8-6 13-6 4.1 0 8 1.5 11.1 4.1 7.2 6.1 8 16.9 1.9 24l-.2.2-2.3 2.1L52 117.9zM126 9.5l-1.7 2.5-57.5 84.3 76.6-72c4-4.8 3.4-12-1.4-16-2.1-1.8-4.7-2.7-7.4-2.7-3.3 0-6.4 1.4-8.6 3.9z"/><path fill="#231F20" d="M134.5 24.9c-1.1 0-2.2-.3-3.1-.8-3.2-1.7-4.5-5.8-2.8-9 1.7-3.1 5.9-4.4 9-2.8 3.2 1.7 4.5 5.8 2.8 9-1.2 2.2-3.4 3.6-5.9 3.6zm0-7.8c-.3 0-.7.2-.9.6-.3.5-.1 1.2.4 1.4.4.2 1.1.2 1.4-.4.3-.5.1-1.2-.4-1.4-.2-.1-.3-.2-.5-.2z"/></svg>