<?xml version="1.0" encoding="utf-8"?><svg xmlns="http://www.w3.org/2000/svg" viewBox="0 0 104.2 155.8"><path fill="#231F20" d="M104.2 132.5c0-2.8-2-5.1-4.6-5.7-2-5.3-4.9-11.2-9.3-17.4.4-.8.6-1.6.6-2.5 0-3.2-2.6-5.9-5.9-5.9-.4 0-.8.1-1.2.1-6.6-7.5-15.3-15.3-26.7-23.2C68.5 70 77.2 62.1 83.8 54.7c.4.1.8.1 1.2.1 3.2 0 5.9-2.6 5.9-5.9 0-.9-.2-1.7-.5-2.4 4.4-6.2 7.4-12.1 9.4-17.5 2.6-.6 4.6-2.9 4.6-5.7 0-1.6-.7-3.1-1.8-4.2 2.1-11.2-.1-18.4-.4-19.1l-5.3 1.8c0 .1 1.9 6.2.1 15.8-1.6.4-2.9 1.5-3.7 2.9H11c-.7-1.4-2-2.4-3.5-2.8-1.8-9.7 0-15.8 0-15.9L2.2 0C2 .7-.2 7.9 1.8 19 .7 20.1 0 21.6 0 23.3c0 2.8 2 5.2 4.6 5.7 2 5.3 4.9 11.1 9.3 17.3-.4.8-.6 1.7-.6 2.6 0 3.2 2.6 5.9 5.9 5.9.5 0 .9-.1 1.3-.2 6.6 7.5 15.3 15.3 26.7 23.2-11.4 7.9-20.1 15.8-26.7 23.2-.4-.1-.8-.1-1.2-.1-3.2 0-5.9 2.6-5.9 5.9 0 .9.2 1.7.6 2.5-4.4 6.2-7.4 12-9.3 17.4-2.7.6-4.7 3-4.7 5.8 0 1.7.7 3.2 1.8 4.3-2 11.1.1 18.3.4 19l5.3-1.8c0-.1-1.9-6.2-.1-15.9 1.6-.4 2.9-1.5 3.6-2.9h82.2c.8 1.4 2.1 2.4 3.6 2.9 1.8 9.7 0 15.7-.1 15.9l2.7.9 2.7.9c.2-.7 2.4-7.9.4-19.1 1.1-1.1 1.7-2.6 1.7-4.2zm-94.1-4.1c1.8-4.8 4.5-10.1 8.5-15.7.2 0 .4.1.7.1 2.2 0 4.1-1.3 5.1-3.1h55.5c1 1.8 2.9 3.1 5.1 3.1.2 0 .4 0 .6-.1 3.9 5.6 6.6 10.9 8.5 15.8-.4.4-.6.8-.9 1.2H11c-.2-.5-.5-.9-.9-1.3zM19.2 43c-.2 0-.3 0-.5.1-4-5.7-6.7-11-8.5-15.8.3-.4.6-.8.8-1.2h82.2c.3.5.6.9 1 1.3-1.8 4.8-4.5 10.1-8.5 15.7-.2 0-.5-.1-.7-.1-2.2 0-4.1 1.3-5.1 3.1H24.3c-1-1.8-2.9-3.1-5.1-3.1zm6.3 8.7h53.4c-6.5 7.3-15.2 15-26.7 22.8C40.7 66.7 32 59 25.5 51.7zm26.7 29.6c11.5 7.8 20.2 15.5 26.7 22.8H25.4c6.5-7.3 15.2-15 26.8-22.8z"/></svg>