<?xml version="1.0" encoding="utf-8"?><svg xmlns="http://www.w3.org/2000/svg" viewBox="0 0 95.1 138.1"><path fill="#231F20" d="M17.7 16.1C8.9 16.1 0 13.3 0 8 0-2.7 35.4-2.7 35.4 8c0 5.3-8.9 8.1-17.7 8.1zm0-12.3C8.6 3.8 4 6.7 4 8s4.7 4.1 13.7 4.1S31.4 9.2 31.4 8s-4.7-4.2-13.7-4.2zm0 134.3C8.9 138.1 0 135.3 0 130h4c0 1.2 4.7 4.1 13.7 4.1s13.7-2.9 13.7-4.1h4c0 5.3-8.9 8.1-17.7 8.1z"/><path fill="#231F20" d="M0 8h4v122.7H0zm35.4 122h-4v-3.2h4v3.2zm0-7.2h-4v-4h4v4zm0-7.9h-4v-4h4v4zm0-8h-4v-4h4v4zm0-7.9h-4v-4h4v4zm0-8h-4v-4h4v4zm0-7.9h-4v-4h4v4zm0-7.9h-4v-4h4v4zm0-8h-4v-4h4v4zm0-7.9h-4v-4h4v4zm0-7.9h-4v-4h4v4zm0-8h-4v-4h4v4zm0-7.9h-4v-4h4v4zm0-7.9h-4v-4h4v4zm0-8h-4v-4h4v4z"/><path fill="#231F20" d="M95.1 132H33.4v-4h57.7V40.6L60 10H33.4V6h28.3l33.4 32.9z"/><path fill="#231F20" d="M92.4 42.3H59.1V9h4v29.4h29.3z"/></svg>