<?xml version="1.0" encoding="utf-8"?><svg xmlns="http://www.w3.org/2000/svg" viewBox="0 0 155.9 162.4"><path fill="#231F20" d="M112.1 116.7H43.8v-33l-25.7 25.7L0 91.2l45.5-45.5H62l15.9 15.9 15.9-15.9h16.5l45.5 45.5-18.2 18.2-25.7-25.7v33zm-62.7-5.6h57v-41l31.3 31.3L148 91.2l-39.9-39.9H96.2L77.9 69.5 59.7 51.3H47.8L7.9 91.2l10.3 10.3 31.3-31.3v40.9zM15.7 5.53l3.96-3.96 17.253 17.253-3.96 3.96zm103.313 13.327l17.254-17.253 3.96 3.96-17.254 17.253zM75.1 0h5.6v24.4h-5.6zm43.884 143.567l3.96-3.96 17.253 17.253-3.96 3.96zM15.67 156.835l17.254-17.253 3.96 3.96-17.253 17.253zM75.1 138h5.6v24.4h-5.6z"/></svg>