<?xml version="1.0" encoding="utf-8"?><svg xmlns="http://www.w3.org/2000/svg" viewBox="0 0 166 158.4"><path fill="#06292F" d="M103.1 22.9c5.4.5 10.3-4.2 10.9-10.6.6-6.3-3.4-11.8-8.8-12.3S94.9 4.2 94.3 10.6c-.6 6.3 3.3 11.8 8.8 12.3M150.8 55c-.6-.5-13.5-12.1-25.5-17.1l-.6-.3-.5-.2c-1.7-.7-3.4-1.1-5.1-1.5-.9-.1-1.9-.2-2.8-.2-11 0-19.9 8.9-19.9 19.9 0 4.2 1.3 8.2 3.8 11.7l.3.4c6.8 9.8 2.3 20-1.3 25.7l-.5.7c-.7 1.1-1.3 1.7-1.4 1.9l-.4.5c-2.2 3.4-3.3 7.3-3.3 11.4 0 11.8 9.6 21.4 21.4 21.4 6.9 0 13.4-3.4 17.4-9l.1-.1c5.9-7.6 34.6-46.5 18.7-65l-.4-.2zm-23.1 61.6l-.2.3c-2.9 4.1-7.6 6.5-12.5 6.5-8.5 0-15.4-6.9-15.4-15.4 0-2.9.8-5.6 2.3-8 .2-.2.5-.6.8-1.1l.6-.9.9-1.2c3.8-5.9 10.3-19.4 1.3-32.3-.1-.2-.3-.4-.5-.7-1.7-2.3-2.5-5.1-2.5-8 0-7.7 6.3-13.9 13.9-13.9.7 0 1.3 0 1.8.1 1.2.2 2.5.6 3.9 1.1l.5.2c10.5 4.1 22.6 14.7 24.1 16 10.3 12.5-6.9 41.7-19 57.3m14.6-87.1c3.1.7 6.2-1.7 6.9-5.4.8-3.6-1-7.1-4.1-7.8-3.1-.7-6.2 1.7-7 5.4-.7 3.7 1.2 7.2 4.2 7.8m-16.2-10.3c3.8.9 7.7-1.8 8.7-6.1 1-4.3-1.2-8.5-5-9.4-3.8-.9-7.7 1.9-8.7 6.1-1 4.3 1.2 8.5 5 9.4m36.4 26.1c-2.3-.4-4.5 1.5-4.9 4.2-.4 2.7 1.1 5.1 3.4 5.5 2.3.4 4.5-1.5 5-4.2.3-2.7-1.2-5.2-3.5-5.5m-9.7-4.4c2.1 1 4.8-.3 6.1-3 1.3-2.6.6-5.6-1.6-6.6-2.1-1-4.8.3-6.1 3-1.2 2.6-.5 5.6 1.6 6.6m-89.9 11c5.4-.5 9.4-6 8.8-12.3-.6-6.3-5.4-11-10.9-10.6-5.4.5-9.4 6-8.8 12.3.6 6.4 5.5 11.1 10.9 10.6m6 73.4c-.2-.2-.8-.9-1.5-2l-.5-.7c-1.5-2.3-3.1-5.4-4.1-8.9v-.2c-1.3-5-1.2-10.9 2.8-16.6l.4-.5c2.4-3.4 3.7-7.3 3.7-11.5 0-11-8.9-19.9-19.9-19.9-.9 0-1.9.1-2.9.2-1.6.3-3.3.8-5 1.4l-.5.2-.7.2c-12 4.9-25 16.6-25.5 17l-.3.3c-16 18.5 12.7 57.4 18.5 64.8l.3.5c4 5.5 10.5 8.8 17.3 8.8 11.8 0 21.4-9.6 21.4-21.4 0-4.1-1.1-8-3.3-11.4l-.2-.3zm-17.8 27.1c-5 0-9.7-2.4-12.5-6.5l-.2-.3c-1.5-2-9.5-12.5-15.6-24.8-5.2-10.5-9.9-24.7-3.4-32.5 1.4-1.3 13.5-11.8 24.1-16l.5-.2c1.4-.5 2.7-.9 3.8-1.1.6-.1 1.3-.1 1.9-.1 7.7 0 13.9 6.3 13.9 13.9 0 2.9-.9 5.7-2.7 8.2-.1.2-.3.4-.3.4-9.1 13-2.6 26.5 1.2 32.4l.6 1.1.8 1c.3.5.6.8.8 1 1.5 2.4 2.3 5.2 2.3 8 .2 8.6-6.7 15.5-15.2 15.5M23.7 58.5c3-.7 4.9-4.1 4.1-7.8-.8-3.6-3.9-6-7-5.4-3 .7-4.9 4.1-4.1 7.8.8 3.7 3.9 6.1 7 5.4m16.2-10.3c3.8-.9 6-5.1 5-9.4-1-4.3-4.9-7-8.7-6.1-3.8.9-6 5.1-5 9.4 1 4.3 4.9 7 8.7 6.1M3.5 74.3c-2.3.4-3.8 2.8-3.4 5.5.4 2.7 2.6 4.5 5 4.2 2.3-.4 3.8-2.8 3.4-5.5-.5-2.7-2.7-4.6-5-4.2m9.7-4.4c2.1-1 2.8-3.9 1.6-6.6-1.2-2.7-4-4-6.1-3-2.1 1-2.8 4-1.6 6.6 1.2 2.7 3.9 4 6.1 3"/></svg>