<?xml version="1.0" encoding="utf-8"?><svg xmlns="http://www.w3.org/2000/svg" viewBox="0 0 80.9 178.4"><path fill="#06292F" d="M80.9 96.3H0V0h80.9v96.3zM75.4 5.5H5.5v85.3h69.9"/><path fill="#06292F" d="M59.3 123.9H21.6V91h37.7v32.9zm-32.2-5.5h26.7V96.5H27.1v21.9z"/><path fill="#06292F" d="M37.7 120.3h5.5v58.1h-5.5zM76.8 175H56.6m0-2.8h20.2v5.5H56.6zM67 149.9l-14.2 14.3m-2.01-1.953l14.285-14.284 3.89 3.89-14.285 14.283zM14.7 149.9L29 164.2m-16.22-12.308l3.888-3.89 14.283 14.284-3.88 3.89zM25.5 175H5.3m0-2.8h20.2v5.5H5.3z"/></svg>