<?xml version="1.0" encoding="utf-8"?><svg xmlns="http://www.w3.org/2000/svg" viewBox="0 0 1000 244"><path d="M71.5 157.3c23.3 0 36.8-10.8 36.8-31.5 0-19.1-15.3-29.6-36.8-29.6H20.6v61.1h50.9zm-5.8-77.7c24.7 0 35.9-13.5 35.9-29.8 0-15.7-11.2-28.4-35.9-28.4H20.6v58.2h45.1zM0 3.7h66.7c38.3 0 56 19.8 56 44.5 0 19.6-11.4 32.3-27.6 38.1 20.4 5.4 34.4 18.8 34.4 40.6 0 30.6-22.1 47.9-57.7 47.9H0V3.7zM191.5 116h65.7l-32.7-91h-.5l-32.5 91zM212.1 3.7h24.7l64 171.2h-22.3l-15.3-42.1h-77.8l-15 42.1h-22.5L212.1 3.7zm187.2 85.6c27.4 0 38.1-17.1 38.1-34.2 0-17.6-10.4-33.7-37.8-33.7h-50.2v68h49.9zM328.7 3.7h71c43.2 0 58.4 25.7 58.4 51.1 0 20.5-11.1 40.6-35.9 48.2l36.1 71.9h-22.8l-32.5-69h-53.9v69h-20.6V3.7zm236.1 85.6c27.4 0 38.1-17.1 38.1-34.2 0-17.6-10.4-33.7-37.8-33.7h-50.2v68h49.9zM494.3 3.7h71c43.2 0 58.4 25.7 58.4 51.1 0 20.5-11.2 40.6-35.9 48.2l36.1 71.9h-22.8l-32.5-69h-53.9v69h-20.6V3.7zm242.7 135c26.9 0 42.4-21.3 42.4-49.4S764.1 39.9 737 39.9c-26.9 0-42.2 21.3-42.2 49.4s15.5 49.4 42.2 49.4M737 .6c54.8 0 89.7 39.9 89.7 88.8S792 178.1 737 178.1c-54.8 0-89.7-39.9-89.7-88.8S682.4.6 737 .6m111 3.1h44.4l63.5 97.4V3.7h44.1v171.2h-44.1l-63.8-96.8v96.8H848zM2.4 236.9c2.1 1.2 4.5 2.1 6.9 2.1 2.5 0 3.8-1 3.8-2.6C13.1 232 .5 235 .5 226c0-3.9 3.2-7 8.6-7 3.1 0 5.8.7 8.4 2l-1.9 4c-2.1-1-4.2-1.5-6.3-1.5-2.2 0-3.6 1.1-3.6 2.5 0 4.3 12.6 1.3 12.6 10.4 0 4-3 7.1-9 7.1-3.5 0-7.1-1.2-9.3-2.6l2.4-4zm28.5-17.4h5.2l4.9 16.3h.1l4.6-16.3h4.6l4.7 16.3 4.9-16.3h5.3L57.8 243h-5.2l-4.5-16H48l-4.6 16h-5.2zm47.9 0h5.1v23.6h-5.1zm26.6 4.5h-7.7v-4.5h20.5v4.5h-7.7v19h-5.1zm37.1-5c3.2 0 6 1 8.5 3l-2.7 3.5c-1.6-1.3-3.4-2.2-5.6-2.2-4.3 0-7.2 3.1-7.2 7.7 0 4.9 2.8 8 7.2 8 2.3 0 4.2-.9 5.8-2.5l3 3.2c-2.5 2.4-5.4 3.5-9.1 3.5-7.1 0-12-5.2-12-12.3-.1-6.8 5-11.9 12.1-11.9m23 .5h5v9.4h9.2v-9.4h5V243h-5v-9.7h-9.2v9.7h-5zm60 14.1l-8.8-14.1h5.9l5.4 9h.1l5.5-9h5.8l-8.8 14.1v9.4h-5.1zm36.6 5.5c4.1 0 7-3.1 7-7.9 0-4.7-2.9-7.8-7-7.8s-7 3.1-7 7.8c.1 4.8 3 7.9 7 7.9m0-20.1c7.1 0 12.1 5.1 12.1 12.1 0 7.1-5 12.3-12.1 12.3s-12.1-5.1-12.1-12.3c0-7 5.1-12.1 12.1-12.1m26.4.5h5.1v14.6c0 3.2 1.9 5 4.8 5 2.8 0 4.8-1.8 4.8-5v-14.6h5.1v14.6c0 6.3-4.1 9.4-9.9 9.4-5.7 0-9.9-3.1-9.9-9.4v-14.6zm45.1 11c2.7 0 4-1.5 4-3.5 0-2.1-1.3-3.5-3.9-3.5h-5.2v7h5.1zm-10.3-11h10.3c6.7 0 9 3.7 9 7.5 0 2.8-1.4 5.3-4.3 6.5l4.5 9.6h-5.4l-3.6-8.8h-5.3v8.8h-5.1v-23.6zm62.9 19.5c2.3 0 3.7-1 3.7-3.1 0-2-1.5-3-3.7-3H381v6.1h5.2zm-.7-9.7c2.4 0 3.6-1.2 3.6-2.9s-1.2-2.8-3.6-2.8h-4.4v5.8h4.4zm-9.4-9.8h9.8c5.6 0 8.2 2.7 8.2 6.3 0 2.5-1.3 4.1-3.5 5 2.6.8 4.4 2.6 4.4 5.5 0 4.3-3.4 6.7-8.6 6.7h-10.3v-23.5zm43.5 11c2.7 0 4-1.5 4-3.5 0-2.1-1.3-3.5-3.9-3.5h-5.2v7h5.1zm-10.2-11h10.3c6.7 0 9 3.7 9 7.5 0 2.8-1.4 5.3-4.3 6.5l4.5 9.6h-5.4l-3.6-8.8h-5.3v8.8h-5.1v-23.6zm40.1 15.2h6.3l-3.1-9.6h-.1l-3.1 9.6zm.3-15.2h5.7L464 243h-5.4l-1.5-4.4h-8.9l-1.4 4.4h-5.4l8.4-23.5zm27.8 0h4.8l10.4 15.5v-15.5h4.8V243h-4.8l-10.4-15.4V243h-4.8zm43.3 19.4c4.9 0 7.4-2.9 7.4-7.7 0-4.6-2.6-7.6-7.4-7.6h-3v15.3h3zm-8.1-19.4h7.7c8.3 0 12.9 4.3 12.9 11.7 0 7.5-4.2 11.9-12.9 11.9h-7.7v-23.6zm64.8 19.6c4.1 0 7-3.1 7-7.9 0-4.7-2.9-7.8-7-7.8s-7 3.1-7 7.8c0 4.8 2.9 7.9 7 7.9m0-20.1c7.1 0 12.1 5.1 12.1 12.1 0 7.1-5 12.3-12.1 12.3s-12.1-5.1-12.1-12.3c-.1-7 5-12.1 12.1-12.1m26.4.5h4.8l10.4 15.5v-15.5h4.8V243h-4.8l-10.4-15.4V243H604zm52.1-.4H1000v24.4H656.1z"/></svg>