<?xml version="1.0" encoding="utf-8"?><svg xmlns="http://www.w3.org/2000/svg" viewBox="0 0 160.2 158"><path d="M49.5 8.4c6.7 0 10.3 4.4 10.3 10.6 0 .9-.1 2.1-.2 2.8H44.3c.3 3.9 2.2 5.9 5.7 5.9 2.3 0 4.5-.8 6.4-2l2.6 4c-2.9 2-6.1 3-9.6 3-6.8 0-11.7-4.5-11.7-12.3.2-7.5 5.4-12 11.8-12zm-5 9.7h9.4c0-2.9-1.1-5.2-4.2-5.2-2.6 0-4.6 1.9-5.2 5.2zM66 1.9h8.7c10.5 0 16.2 5.7 16.2 15 0 9.6-5.3 15.3-16.2 15.3H66V1.9zM75 29c8.2 0 12.2-4.6 12.2-12.2C87.2 9.6 82.9 5 75 5h-5.3v24H75zM97.4 9.7h3.2l.3 3.8c1.7-2.9 4-4.4 6.8-4.4 1.1 0 2.1.2 2.9.4l-.7 3.4c-.8-.3-1.6-.5-2.6-.5-2.6 0-4.6 1.6-6.3 4.6v15.1h-3.6V9.7zM116 0h3.6v4.1H116V0zm0 9.8h3.6v22.3H116V9.8zm17.8 92.2h26.4v-5.6h-25.6v-.8c0-7.1-2.2-10.8-4.2-14.1-1.5-2.4-2.7-4.6-3.2-8.2h5.8l-9.1-11.5-9.1 11.5h6.8c.5 5.1 2.4 8.2 4 11 1.8 3 3.4 5.7 3.4 11.2v.8H83.9c.5-3.3 1.8-5.4 3.1-7.7 2-3.3 4.2-7 4.2-14.1S89 63.7 87 60.4c-1.5-2.4-2.7-4.6-3.2-8.2h5.8l-9.1-11.5-9.1 11.5h6.8c.5 5.1 2.4 8.2 4 11 1.8 3 3.4 5.7 3.4 11.2 0 5.6-1.6 8.2-3.4 11.2-1.6 2.7-3.4 5.7-4 10.5H49v-.8c0-7.1-2.2-10.8-4.2-14.1-1.5-2.4-2.7-4.6-3.2-8.2h5.8l-9.1-11.5L29.2 73H36c.5 5.1 2.4 8.2 4 11 1.8 3 3.4 5.7 3.4 11.2v.8H0v5.6h42.6c-.6 1.8-1.5 3.3-2.4 4.8-1.8 3-3.8 6.4-4.1 12.3-9.3 1.5-16.5 9.6-16.5 19.3 0 10.8 8.8 19.6 19.6 19.6s19.6-8.8 19.6-19.6c0-10-7.6-18.3-17.3-19.4.3-4.3 1.7-6.7 3.3-9.4 1.3-2.1 2.6-4.4 3.4-7.7h19.9c-3.6 3.6-5.9 8.5-5.9 14 0 10.8 8.8 19.6 19.6 19.6s19.6-8.8 19.6-19.6c0-5.5-2.3-10.4-5.9-14H128c-.6 1.8-1.5 3.3-2.4 4.8-1.8 3-3.8 6.4-4.1 12.3-9.3 1.5-16.5 9.6-16.5 19.3 0 10.8 8.8 19.6 19.6 19.6s19.6-8.8 19.6-19.6c0-10-7.6-18.3-17.3-19.4.3-4.3 1.7-6.7 3.3-9.4 1.4-1.6 2.8-3.9 3.6-7.1zm-80.6 36.4c0 7.7-6.3 14-14 14s-14-6.3-14-14 6.3-14 14-14 14 6.3 14 14zM95.9 116c0 7.7-6.3 14-14 14s-14-6.3-14-14 6.3-14 14-14 14 6.2 14 14zm42.8 22.4c0 7.7-6.3 14-14 14s-14-6.3-14-14 6.3-14 14-14 14 6.3 14 14z" fill="#231F20"/></svg>