<?xml version="1.0" encoding="utf-8"?><svg xmlns="http://www.w3.org/2000/svg" viewBox="0 0 165.2 165.2"><path fill="#231F20" d="M159.6 5.6v154H5.6V5.6h154m5.6-5.6H0v165.2h165.2V0z"/><path d="M42.4 21.2h21.5c14.7 0 19.8 8.1 19.8 16.3 0 8.1-5.1 16.4-19.7 16.4H53.5v18.6H42.4V21.2zm21.4 24c6 0 8.8-3.3 8.8-7.6 0-4.4-2.9-7.5-8.7-7.5H53.5v15.2h10.3zm43.8-12.9c11.2 0 19.6 8 19.6 20.1 0 13-7.9 20.9-19.6 20.9-11.9 0-19.8-8-19.8-20.9 0-12.1 8.5-20.1 19.8-20.1zm0 33c5.6 0 8.8-5.1 8.8-12.8 0-7.3-3.5-12.1-8.8-12.1-5.4 0-9 4.8-9 12.1 0 7.8 3.2 12.8 9 12.8zm-66.2 33c2.4 0 4.5.8 6.3 2.2l-2 2.6c-1.2-1-2.5-1.6-4.2-1.6-3.2 0-5.3 2.3-5.3 5.7 0 3.6 2.1 5.9 5.3 5.9 1.7 0 3.1-.7 4.3-1.8l2.2 2.4c-1.9 1.7-4 2.6-6.7 2.6-5.3 0-9-3.8-9-9.1 0-5.1 3.7-8.9 9.1-8.9zm16.8 0c5.3 0 9 3.7 9 9s-3.7 9.1-9 9.1-9-3.8-9-9.1c0-5.2 3.7-9 9-9zm0 14.9c3.1 0 5.2-2.3 5.2-5.9 0-3.5-2.1-5.8-5.2-5.8s-5.2 2.3-5.2 5.8 2.2 5.9 5.2 5.9zM74 102h-5.7v-3.3h15.3v3.3h-5.8v14H74v-14zm16.5 0h-5.7v-3.3h15.3v3.3h-5.8v14h-3.8v-14zm19.7-3.7c5.3 0 9 3.7 9 9s-3.7 9.1-9 9.1-9-3.8-9-9.1c0-5.2 3.7-9 9-9zm0 14.9c3.1 0 5.2-2.3 5.2-5.9 0-3.5-2.1-5.8-5.2-5.8s-5.2 2.3-5.2 5.8 2.1 5.9 5.2 5.9zm11.7-14.6h3.6l7.8 11.5V98.6h3.6V116h-3.6l-7.8-11.4V116h-3.6V98.6zM46 128.5h3.8v14.2h8.7v3.3H46v-17.5zm17.8 10.4l-6.5-10.4h4.4l4.1 6.7 4.1-6.7h4.3l-6.5 10.4v7h-3.8v-7zm19.3-10.7c2.4 0 4.5.8 6.3 2.2l-2 2.6c-1.2-1-2.5-1.6-4.2-1.6-3.2 0-5.3 2.3-5.3 5.7 0 3.6 2.1 5.9 5.3 5.9 1.7 0 3.1-.7 4.3-1.8l2.2 2.4c-1.9 1.7-4 2.6-6.7 2.6-5.3 0-9-3.8-9-9.1.1-5.2 3.8-8.9 9.1-8.9zm9.2.3h7.7c5 0 6.7 2.7 6.7 5.5 0 2-1 3.9-3.2 4.8l3.3 7.1h-4.1l-2.7-6.5h-4v6.5h-3.8v-17.4zm7.6 8.2c2 0 3-1.1 3-2.6s-1-2.6-2.9-2.6h-3.9v5.1h3.8zm14.6-8.2h4.3l6.3 17.4h-4l-1.1-3.3h-6.6l-1.1 3.3h-4.1l6.3-17.4zm-.3 11.2h4.7l-2.3-7.1h-.1l-2.3 7.1z" fill="#231F20"/></svg>