<?xml version="1.0" encoding="utf-8"?><svg xmlns="http://www.w3.org/2000/svg" viewBox="0 0 165.2 165.2"><path fill="#231F20" d="M159.6 5.6v154H5.6V5.6h154m5.6-5.6H0v165.2h165.2V0z"/><path d="M42.4 21.2h21.5c14.7 0 19.8 8.1 19.8 16.3 0 8.1-5.1 16.4-19.7 16.4H53.5v18.6H42.4V21.2zm21.4 24c6 0 8.8-3.3 8.8-7.6 0-4.4-2.9-7.5-8.7-7.5H53.5v15.2h10.3zm43.8-12.9c11.2 0 19.6 8 19.6 20.1 0 13-7.9 20.9-19.6 20.9-11.9 0-19.8-8-19.8-20.9 0-12.1 8.5-20.1 19.8-20.1zm0 33c5.6 0 8.8-5.1 8.8-12.8 0-7.3-3.5-12.1-8.8-12.1-5.4 0-9 4.8-9 12.1 0 7.8 3.2 12.8 9 12.8zm-66.2 33c2.4 0 4.5.8 6.3 2.2l-2 2.6c-1.2-1-2.5-1.6-4.2-1.6-3.2 0-5.3 2.3-5.3 5.7 0 3.6 2.1 5.9 5.3 5.9 1.7 0 3.1-.7 4.3-1.8l2.2 2.4c-1.9 1.7-4 2.6-6.7 2.6-5.3 0-9-3.8-9-9.1 0-5.1 3.7-8.9 9.1-8.9zm16.8 0c5.3 0 9 3.7 9 9s-3.7 9.1-9 9.1-9-3.8-9-9.1c0-5.2 3.7-9 9-9zm0 14.9c3.1 0 5.2-2.3 5.2-5.9 0-3.5-2.1-5.8-5.2-5.8s-5.2 2.3-5.2 5.8 2.2 5.9 5.2 5.9zM74 102h-5.7v-3.3h15.3v3.3h-5.8v14H74v-14zm16.5 0h-5.7v-3.3h15.3v3.3h-5.8v14h-3.8v-14zm19.7-3.7c5.3 0 9 3.7 9 9s-3.7 9.1-9 9.1-9-3.8-9-9.1c0-5.2 3.7-9 9-9zm0 14.9c3.1 0 5.2-2.3 5.2-5.9 0-3.5-2.1-5.8-5.2-5.8s-5.2 2.3-5.2 5.8 2.1 5.9 5.2 5.9zm11.7-14.6h3.6l7.8 11.5V98.6h3.6V116h-3.6l-7.8-11.4V116h-3.6V98.6zm-93.4 42.8c1.5.9 3.4 1.6 5.1 1.6 1.9 0 2.8-.8 2.8-1.9 0-3.3-9.4-1.1-9.4-7.7 0-2.9 2.4-5.2 6.4-5.2 2.3 0 4.3.5 6.3 1.5l-1.4 3c-1.5-.8-3.2-1.1-4.7-1.1-1.7 0-2.7.8-2.7 1.8 0 3.2 9.4.9 9.4 7.7 0 2.9-2.2 5.2-6.7 5.2-2.6 0-5.3-.9-6.9-1.9l1.8-3zm14.6-12.9h7.3c5 0 6.7 2.7 6.7 5.5s-1.7 5.6-6.7 5.6h-3.5v6.3h-3.8v-17.4zm7.3 8.2c2 0 3-1.1 3-2.6s-1-2.6-3-2.6h-3.5v5.1h3.5zm12.6-8.2h4.3l6.3 17.4h-4l-1.1-3.3h-6.6l-1.1 3.3h-4.1l6.3-17.4zm-.2 11.2h4.7l-2.3-7.1h-.1l-2.3 7.1zm13-11.2h3.6l7.8 11.5v-11.5h3.6v17.4h-3.6l-7.8-11.4v11.4h-3.6v-17.4zm18.3 0h5.7c6.2 0 9.6 3.2 9.6 8.6 0 5.5-3.1 8.8-9.6 8.8h-5.7v-17.4zm6 14.3c3.7 0 5.5-2.2 5.5-5.7 0-3.4-2-5.6-5.5-5.6h-2.2v11.3h2.2zm12-14.3h12.7v3.3h-8.9v3.8h8v2.9h-8v4.1h9v3.3h-12.8v-17.4zm20.6 8.5l-5.7-8.5h4.5l3.7 5.6 3.7-5.6h4.5l-5.8 8.5 6 8.9h-4.5l-3.9-5.9-3.9 5.9h-4.5l5.9-8.9z" fill="#231F20"/></svg>