<?xml version="1.0" encoding="utf-8"?><svg xmlns="http://www.w3.org/2000/svg" viewBox="0 0 165.1 165.1"><path fill="#231F20" d="M159.5 5.5v154H5.5V5.5h154m5.6-5.5H0v165h165V0h.1z"/><path d="M42.3 35.3h21.5c14.7 0 19.8 8.1 19.8 16.3 0 8.1-5.1 16.4-19.7 16.4H53.4v18.6H42.3V35.3zm21.4 24c6 0 8.8-3.3 8.8-7.6 0-4.4-2.9-7.5-8.7-7.5H53.4v15.2h10.3zm43.8-12.9c11.2 0 19.6 8 19.6 20.1 0 13-7.9 20.9-19.6 20.9-11.9 0-19.8-8-19.8-20.9 0-12.2 8.5-20.1 19.8-20.1zm0 33c5.6 0 8.8-5.1 8.8-12.8 0-7.2-3.5-12.1-8.8-12.1-5.4 0-9 4.8-9 12.1 0 7.7 3.3 12.8 9 12.8zm-61.6 33.3h3.8v14.1h8.7v3.3H45.9v-17.4zm17.8 10.4l-6.5-10.4h4.4l4.1 6.7 4.1-6.7H74l-6.5 10.4v7h-3.8v-7zm19.4-10.7c2.4 0 4.5.8 6.3 2.2l-2 2.6c-1.2-1-2.5-1.6-4.2-1.6-3.2 0-5.3 2.3-5.3 5.7 0 3.6 2.1 5.9 5.3 5.9 1.7 0 3.1-.7 4.3-1.8l2.2 2.4c-1.9 1.7-4 2.6-6.7 2.6-5.3 0-9-3.8-9-9.1 0-5.1 3.7-8.9 9.1-8.9zm9.1.3h7.7c5 0 6.7 2.7 6.7 5.5 0 2-1 3.9-3.2 4.8l3.3 7.1h-4.1l-2.7-6.5h-4v6.5h-3.8v-17.4zm7.6 8.2c2 0 3-1.1 3-2.6s-1-2.6-2.9-2.6H96v5.1h3.8zm14.6-8.2h4.3l6.3 17.4h-4l-1.1-3.3h-6.6l-1.1 3.3h-4.1l6.3-17.4zm-.2 11.3h4.7l-2.3-7.1-2.4 7.1z" fill="#231F20"/></svg>