<?xml version="1.0" encoding="utf-8"?><svg xmlns="http://www.w3.org/2000/svg" viewBox="0 0 165.1 165.1"><path fill="#231F20" d="M159.5 5.5v154H5.5V5.5h154m5.6-5.5H0v165h165V0h.1z"/><path d="M42.6 35.3h22.6c14.6 0 19.7 8.1 19.7 16.3 0 6-3 11.4-9.4 14.1l9.8 20.9h-12l-7.9-19.1H53.7v19.1H42.6V35.3zm22.4 24c5.9 0 8.7-3.3 8.7-7.6 0-4.5-2.9-7.5-8.6-7.5H53.7v15.2H65zm48.8 3.7v-3.4c0-2.9-1.7-4.7-5.4-4.7s-7.7 1.5-12.5 3.9l-3.8-7.9c5.3-2.6 11.4-4.5 16.8-4.5 11.3 0 15.7 5.5 15.7 13.5v16.4c0 2.1 1.2 3.1 3.2 3.1v7.4c-7.4 0-10.5-1.1-12.7-4.8-3.3 3.5-7 5.5-12.2 5.5-6.9 0-11.7-4.2-11.7-10.4-.1-8.6 8-13.1 22.6-14.1zm-7.5 16.8c3.3 0 5.8-1.4 7.5-3.3V69c-6.1.4-12 1.9-12 6.9 0 2.2 1.8 3.9 4.5 3.9zm-60.4 32.9h3.8v14.2h8.7v3.3H45.9v-17.5zm17.8 10.4l-6.5-10.4h4.4l4.1 6.7 4.1-6.7H74l-6.5 10.4v7h-3.8v-7zm19.4-10.7c2.4 0 4.5.8 6.3 2.2l-2 2.6c-1.2-1-2.5-1.6-4.2-1.6-3.2 0-5.3 2.3-5.3 5.7 0 3.6 2.1 5.9 5.3 5.9 1.7 0 3.1-.7 4.3-1.8l2.2 2.4c-1.9 1.7-4 2.6-6.7 2.6-5.3 0-9-3.8-9-9.1 0-5.1 3.8-8.9 9.1-8.9zm9.1.3h7.7c5 0 6.7 2.7 6.7 5.5 0 2-1 3.9-3.2 4.8l3.3 7.1h-4.1l-2.7-6.5h-4v6.5h-3.8v-17.4zm7.6 8.2c2 0 3-1.1 3-2.6s-1-2.6-2.9-2.6H96v5.1h3.8zm14.6-8.2h4.3l6.3 17.4h-4l-1.1-3.3h-6.6l-1.1 3.3h-4.1l6.3-17.4zm-.2 11.3h4.7l-2.3-7.1h-.1l-2.3 7.1z" fill="#231F20"/></svg>