<?xml version="1.0" encoding="utf-8"?><svg xmlns="http://www.w3.org/2000/svg" viewBox="0 0 165.1 165.1"><path fill="#231F20" d="M159.5 5.5v154H5.5V5.5h154m5.6-5.5H0v165h165V0h.1z"/><path d="M42.6 35.3h22.6c14.6 0 19.7 8.1 19.7 16.3 0 6-3 11.4-9.4 14.1l9.8 20.9h-12l-7.9-19.1H53.7v19.1H42.6V35.3zm22.4 24c5.9 0 8.7-3.3 8.7-7.6 0-4.5-2.9-7.5-8.6-7.5H53.7v15.2H65zm48.8 3.7v-3.4c0-2.9-1.7-4.7-5.4-4.7s-7.7 1.5-12.5 3.9l-3.8-7.9c5.3-2.6 11.4-4.5 16.8-4.5 11.3 0 15.7 5.5 15.7 13.5v16.4c0 2.1 1.2 3.1 3.2 3.1v7.4c-7.4 0-10.5-1.1-12.7-4.8-3.3 3.5-7 5.5-12.2 5.5-6.9 0-11.7-4.2-11.7-10.4-.1-8.6 8-13.1 22.6-14.1zm-7.5 16.8c3.3 0 5.8-1.4 7.5-3.3V69c-6.1.4-12 1.9-12 6.9 0 2.2 1.8 3.9 4.5 3.9zm-77.9 45.8c1.5.9 3.4 1.6 5.1 1.6 1.9 0 2.8-.8 2.8-1.9 0-3.3-9.4-1.1-9.4-7.7 0-2.9 2.4-5.2 6.4-5.2 2.3 0 4.3.5 6.3 1.5l-1.4 3c-1.5-.8-3.2-1.1-4.7-1.1-1.7 0-2.7.8-2.7 1.8 0 3.2 9.4.9 9.4 7.7 0 2.9-2.2 5.2-6.7 5.2-2.6 0-5.3-.9-6.9-1.9l1.8-3zM43 112.7h7.3c5 0 6.7 2.7 6.7 5.5s-1.7 5.6-6.7 5.6h-3.5v6.3H43v-17.4zm7.3 8.2c2 0 3-1.1 3-2.6s-1-2.6-3-2.6h-3.5v5.1h3.5zm12.7-8.2h4.3l6.3 17.4h-4l-1.1-3.3h-6.6l-1.1 3.3h-4.1l6.3-17.4zm-.3 11.3h4.7l-2.3-7.1H65l-2.3 7.1zm13-11.3h3.6l7.8 11.5v-11.5h3.6v17.4H87l-7.8-11.4v11.4h-3.6v-17.4zm18.3 0h5.7c6.2 0 9.6 3.2 9.6 8.6 0 5.5-3.1 8.8-9.6 8.8H94v-17.4zm6 14.4c3.7 0 5.5-2.2 5.5-5.7 0-3.4-2-5.6-5.5-5.6h-2.2v11.3h2.2zm12-14.4h12.7v3.3h-8.9v3.8h8v2.9h-8v4.1h9v3.3H112v-17.4zm20.6 8.5l-5.7-8.5h4.6l3.7 5.6 3.7-5.6h4.5l-5.8 8.5 6 8.9h-4.5l-3.9-5.9-3.9 5.9h-4.5l5.8-8.9z" fill="#231F20"/></svg>