<?xml version="1.0" encoding="utf-8"?><svg xmlns="http://www.w3.org/2000/svg" viewBox="0 0 154 112.5"><path fill="#231F20" d="M114.8 89.3C105 92 95.9 94.6 77 94.6S49 92 39.2 89.3c-9.6-2.7-19.6-5.4-39.2-5.4v5.6c18.9 0 28 2.5 37.8 5.2 9.6 2.7 19.6 5.4 39.2 5.4s29.6-2.8 39.2-5.4c9.7-2.7 18.9-5.2 37.8-5.2v-5.6c-19.6 0-29.6 2.8-39.2 5.4z"/><path fill="#231F20" d="M77 106.9c-18.9 0-28-2.5-37.8-5.2C29.6 99 19.6 96.3 0 96.3v5.6c18.9 0 28 2.5 37.8 5.2 9.6 2.7 19.6 5.4 39.2 5.4s29.6-2.8 39.2-5.4c9.7-2.7 18.9-5.2 37.8-5.2v-5.6c-19.6 0-29.6 2.8-39.2 5.4-9.8 2.7-18.9 5.2-37.8 5.2zm55.3-96.6l4.1 3.6L137 0l-13.6 2.6 4.7 4-51.8 68L23.6 5.5l-4.4 3.4 57.1 74.9z"/></svg>