<?xml version="1.0" encoding="utf-8"?><svg xmlns="http://www.w3.org/2000/svg" viewBox="0 0 114.7 154"><path fill="#231F20" d="M71.4 52.1h22.8c14.8 0 19.9 8.2 19.9 16.5 0 6.1-3 11.6-9.5 14.3l9.9 21.1h-12.1l-8-19.4H82.7V104H71.4V52.1zm22.7 24.4c5.9 0 8.8-3.3 8.8-7.7 0-4.5-3-7.6-8.8-7.6H82.7v15.4h11.4zm-50.9 27.6H32V84.7H20.1l-8 19.4H0L9.9 83C3.4 80.3.4 74.8.4 68.7c0-8.3 5.1-16.5 20-16.5h22.8v51.9zM32 76.5V61.1H20.5c-5.8 0-8.8 3.1-8.8 7.6 0 4.4 2.9 7.7 8.8 7.7H32zM54.5 0h5.6v6.7h-5.6zm5.6 134.5h-5.6v-12.8h5.6v12.8zm0-25.5h-5.6V96.2h5.6V109zm0-25.6h-5.6V70.6h5.6v12.8zm0-25.6h-5.6V45h5.6v12.8zm0-25.5h-5.6V19.5h5.6v12.8zm-5.6 115h5.6v6.7h-5.6z"/></svg>