<?xml version="1.0" encoding="utf-8"?><svg xmlns="http://www.w3.org/2000/svg" viewBox="0 0 180 112.4"><path fill="#06292F" d="M179.9 56.4c0 8.2-.2 16.5.1 24.7.2 5.7-2.3 9.8-6.3 13.3-5.1 4.5-11.3 7.1-17.7 9.2-15.6 5.1-31.8 7.1-48.1 8.2-14.6 1-29.1.7-43.6-.5-13.9-1.2-27.7-3.2-41-7.7-6.2-2.1-12.3-4.7-17.3-9.1-3.7-3.4-6-7.3-5.9-12.4.1-16.7.2-33.3-.1-50-.1-8.1 3.9-13.5 10.3-17.5C19 9 28.9 6.5 38.9 4.5 49.7 2.4 60.7 1.2 71.7.6c15.4-.9 30.8-.7 46.1.5 13.5 1.1 27 3 39.9 7.6 5.9 2.1 11.6 4.7 16.2 9.1 4 3.8 6.2 8.1 6.1 13.9-.3 8.2-.1 16.4-.1 24.7zm-5.2 0h.2c0-8.1-.1-16.2.1-24.3.1-4.8-1.8-8.5-5.5-11.2-3.4-2.4-7.1-4.6-10.9-6.2-9.1-3.8-18.8-5.5-28.5-6.9-11.4-1.6-22.8-2.3-34.3-2.5-19.7-.3-39.3.8-58.5 4.8-8.6 1.8-17.1 4.2-24.6 9-4.8 3.1-7.6 7.2-7.5 13.3.2 16.5.1 33 .1 49.4 0 3.1 1.2 5.7 3.3 7.9 3.1 3.1 6.8 5.1 10.8 6.8 8.4 3.6 17.1 5.8 26.1 7 9.7 1.3 19.4 2.4 29.1 3.1 13.1.9 26.3.5 39.4-.6 13.6-1.2 27.1-3.2 40.1-7.4 5.5-1.8 10.8-4 15.3-7.6 3.6-2.8 5.6-6.1 5.4-11-.3-7.8-.1-15.7-.1-23.6"/><path fill="#06292F" d="M17 58.6h146v5.5H17zm101.8-18.1c5.1 1.8 5.1 1.8 5.1 7.1 0 4.2 0 4.3-4.2 4.8-2.2.3-4.5.2-6.7.2H96V30.9c.1 0 .2-.2.3-.2 8 .1 16.1 0 24.1.2 3.2.1 3.5.6 3.5 3.8 0 4.2 0 4.2-4 5.4-.3.1-.6.3-1.1.4M103 49.7c3.9 0 7.7.1 11.5-.1.8 0 2.3-.9 2.2-1.3-.1-1.6 1.2-3.8-1.2-4.7-4.1-1.5-8.4-.8-12.6-.9v7zm0-10.1c3.2 0 6.2.1 9.2 0 1.2-.1 2.5-.6 3.6-1 1.7-.7 1-2.3 1-3.5 0-.5-.8-1.3-1.3-1.3-4.2-.1-8.3-.1-12.6-.1v5.9zM63.6 52.5h-7.1v-8.1c0-3.6.1-7.3 0-10.9 0-1.4.5-2.1 1.7-2.3 1.2-.2 2.5-.6 3.8-.6 6.3 0 12.6.1 18.9.2.7 0 1.6.1 2.2.5.6.4 1.4 1.2 1.4 1.9.1 6.1.1 12.3.1 18.4 0 .2-.1.5-.2.8h-6.8v-9.7h-14v9.8zm13.9-12.8c0-1.5-.1-2.8 0-4.2.1-1.4-.7-1.9-1.8-1.9-3.5-.1-7-.1-10.5.1-.5 0-1.4.8-1.5 1.3-.2 1.5-.1 3.1-.1 4.8h13.9zm-60.3 7.5h6.7c-.3 2.5 1.3 2.5 3 2.5h8.8c1.6 0 2.5-.4 2.5-2.4-.1-4.5 0-4.4-4.6-4.6-4.7-.1-9.4-.4-14.1-.7-1.9-.1-2.6-1.2-2.5-3.1.1-1.8.1-3.6 0-5.4-.1-1.4.5-2 1.7-2.3 1.3-.3 2.6-.6 3.9-.6 5.8 0 11.6.1 17.4.2 1 0 2 .3 3 .6 2 .6 2.7 1.8 2.1 3.8-.1.3-.6.6-1 .8-.3.1-.8 0-1.1 0h-4.7c.2-2.5-1.4-2.5-3.1-2.5h-8.8c-1.7 0-2.5.5-2.4 2.5.2 3.7 0 3.7 3.7 3.7l12.6.3c.7 0 1.4.2 2.1.4 2.6.6 2.9 1 2.9 3.6 0 1.9-.1 3.8 0 5.7.1 1.3-.5 2-1.8 2.3-1 .2-2 .5-3 .5-6.4 0-12.7-.2-19.1-.3-.3 0-.5 0-.8-.1-3.5-.6-3.7-1-3.4-4.9m118 0h6.6c-.4 2.7 1.5 2.5 3.2 2.5h8.8c1.5 0 2.2-.6 2.2-2.3-.1-4.7 0-4.6-4.8-4.7-4.6-.1-9.1-.4-13.7-.7-1.9-.1-2.6-1.2-2.5-3.1.1-1.8.1-3.6 0-5.4-.1-1.4.5-2.2 1.9-2.4 1.3-.2 2.5-.6 3.8-.6 5.9 0 11.7.1 17.6.3.5 0 1 .1 1.5.3 3.4.8 3.7 1.2 3.2 4.8h-6.7c.2-2.1-1.2-2.4-2.8-2.4h-9c-1.6 0-2.6.4-2.5 2.4.2 3.8 0 3.7 3.9 3.8 4.1.1 8.2.2 12.2.3.7 0 1.4.2 2.1.4 2.8.6 2.9.9 2.9 3.7 0 1.9-.1 3.8 0 5.7.1 1.3-.5 1.9-1.6 2.2-1.1.2-2.1.6-3.2.6-6.3 0-12.6-.2-18.9-.3-.3 0-.6-.1-.9-.1-3.5-.7-4-1.4-3.3-5M98.9 81.5c-3.2 0-5.6-2.6-5.6-6s2.6-6 5.9-5.9c3.1.1 5.6 2.9 5.5 6.1-.1 3.4-2.5 5.9-5.8 5.8m3.6-5.8c.1-2.4-1.4-4.1-3.5-4.1-2 0-3.4 1.6-3.5 3.7-.1 2.4 1.4 4.2 3.4 4.3 2.1 0 3.6-1.6 3.6-3.9m51.4 5.4V70c2.8-.2 5.6-.6 7.5 2 1.5 2 1.5 4.7.1 6.8-1.4 2.2-3.8 2.9-7.6 2.3m1.9-1.8c3.2.1 4.6-1.2 4.5-4-.1-2.5-1.7-3.7-4.5-3.3v7.3zM27.5 81.1c-1.4.4-2.3.3-2.6-1.1-.2-1.3-1.1-1.4-2.1-1.3-1.1.2-2.6-.7-3.1 1.2-.3 1.4-1.3 1.6-2.6 1.1 1.4-3.6 2.6-7.2 4-10.7.2-.4.8-.8 1.2-.8.4 0 1 .4 1.1.7 1.4 3.7 2.7 7.2 4.1 10.9m-3.7-4c-.5-1.5-1-2.8-1.6-4.5-.6 1.8-1 3.1-1.5 4.5h3.1zm51.5-7.2c2.4.2 5.1-.9 6.5 2.1.8 1.7.1 3.3-2 4.7.9 1.4 1.8 2.8 2.8 4.4-1.5.6-2.5.2-3.2-1.1-.6-1-1.3-2-2.2-3.4v4.6c-.7.1-1.2.1-1.9.2V69.9zm2 1.7v3.7c1.5.1 2.7-.2 2.7-1.9-.1-1.7-1.2-1.9-2.7-1.8m64.4 0h-3.5v2.8c.9 0 1.9-.1 2.8 0 .3 0 .6.6.9.9-.3.3-.5.7-.9.7-.9.1-1.8 0-2.8 0v3.3h3.5c.4 1.2.4 1.9-1 1.9H136V69.9c1.8 0 3.4-.1 5.1.1.3 0 .6.7.9 1.1 0 .1-.2.3-.3.5M38.6 69.9h2.9c2.7.1 4 1.2 4.1 3.4 0 2.5-1.1 3.6-4 3.8-.2 0-.5 0-1 .1-.1 1.3-.1 2.6-.2 4h-1.8V69.9zm2 5.8c1-.5 2-.7 2.5-1.3.4-.4.3-1.6 0-2.1-.5-.6-1.5-.7-2.5-1.1v4.5zm79.6 2.4c.8-2.5 1.5-4.5 2.1-6.5.6-1.8.6-1.8 2.7-1.5-1.4 3.6-2.7 7.1-4.1 10.7-.1.3-.6.7-.9.7-.3 0-.9-.3-1-.7-1.4-3.5-2.7-7.1-4-10.7 1.4-.5 2.2-.3 2.7 1.2.7 2.1 1.5 4.2 2.5 6.8m-61.4-.8v3.9c-.6.1-1.2.1-1.9.2V70c1.4 0 2.9-.2 4.3 0 1.6.3 2.5 1.4 2.5 3.1.1 1.8-.4 3.2-2.3 3.7-.7.3-1.5.3-2.6.5m.2-5.7v3.7c1.6.3 2.7-.1 2.8-1.7 0-1.7-1.1-2.2-2.8-2"/></svg>