<?xml version="1.0" encoding="utf-8"?><svg xmlns="http://www.w3.org/2000/svg" viewBox="0 0 186 229.6"><path fill="#05292F" d="M172.5 229.6H14.3V0h158.2c2.3 0 4.2 1.9 4.2 4.2v221.2c0 2.3-1.9 4.2-4.2 4.2zm-156.7-1.4h156.7c1.5 0 2.8-1.2 2.8-2.8V4.2c0-1.5-1.2-2.8-2.8-2.8H15.8v226.8z"/><path fill="#05292F" d="M181.8 223.6h-5.7v-1.4h5.7c1.5 0 2.8-1.2 2.8-2.8V4.2c0-1.5-1.2-2.8-2.8-2.8H169V0h12.8c2.3 0 4.2 1.9 4.2 4.2v215.2c0 2.3-1.9 4.2-4.2 4.2zM152.2.7h1.4V228h-1.4zm10.1 0h1.4V228h-1.4zM27.6 24.3c-2.5 0-4.5-2-4.5-4.5s2-4.5 4.5-4.5 4.5 2 4.5 4.5-2.1 4.5-4.5 4.5zm0-7.5c-1.7 0-3.1 1.4-3.1 3.1s1.4 3.1 3.1 3.1 3.1-1.4 3.1-3.1-1.4-3.1-3.1-3.1z"/><path fill="#05292F" d="M0 19.2h23.8v1.4H0zm27.6 23.4c-2.5 0-4.5-2-4.5-4.5s2-4.5 4.5-4.5 4.5 2 4.5 4.5-2.1 4.5-4.5 4.5zm0-7.5c-1.7 0-3.1 1.4-3.1 3.1s1.4 3.1 3.1 3.1 3.1-1.4 3.1-3.1-1.4-3.1-3.1-3.1z"/><path fill="#05292F" d="M0 37.5h23.8v1.4H0zm27.6 23.4c-2.5 0-4.5-2-4.5-4.5s2-4.5 4.5-4.5 4.5 2 4.5 4.5-2.1 4.5-4.5 4.5zm0-7.5c-1.7 0-3.1 1.4-3.1 3.1s1.4 3.1 3.1 3.1 3.1-1.4 3.1-3.1-1.4-3.1-3.1-3.1z"/><path fill="#05292F" d="M0 55.8h23.8v1.4H0zm27.6 23.4c-2.5 0-4.5-2-4.5-4.5s2-4.5 4.5-4.5 4.5 2 4.5 4.5-2.1 4.5-4.5 4.5zm0-7.5c-1.7 0-3.1 1.4-3.1 3.1s1.4 3.1 3.1 3.1 3.1-1.4 3.1-3.1-1.4-3.1-3.1-3.1z"/><path fill="#05292F" d="M0 74.1h23.8v1.4H0zm27.6 23.4c-2.5 0-4.5-2-4.5-4.5s2-4.5 4.5-4.5 4.5 2 4.5 4.5-2.1 4.5-4.5 4.5zm0-7.5c-1.7 0-3.1 1.4-3.1 3.1s1.4 3.1 3.1 3.1 3.1-1.4 3.1-3.1-1.4-3.1-3.1-3.1z"/><path fill="#05292F" d="M0 92.4h23.8v1.4H0zm27.6 23.4c-2.5 0-4.5-2-4.5-4.5s2-4.5 4.5-4.5 4.5 2 4.5 4.5-2.1 4.5-4.5 4.5zm0-7.5c-1.7 0-3.1 1.4-3.1 3.1s1.4 3.1 3.1 3.1 3.1-1.4 3.1-3.1-1.4-3.1-3.1-3.1z"/><path fill="#05292F" d="M0 110.7h23.8v1.4H0zm27.6 23.4c-2.5 0-4.5-2-4.5-4.5s2-4.5 4.5-4.5 4.5 2 4.5 4.5-2.1 4.5-4.5 4.5zm0-7.5c-1.7 0-3.1 1.4-3.1 3.1 0 1.7 1.4 3.1 3.1 3.1s3.1-1.4 3.1-3.1c-.1-1.7-1.4-3.1-3.1-3.1z"/><path fill="#05292F" d="M0 129h23.8v1.4H0z"/><g fill="#05292F"><path d="M27.6 152.4c-2.5 0-4.5-2-4.5-4.5s2-4.5 4.5-4.5 4.5 2 4.5 4.5-2.1 4.5-4.5 4.5zm0-7.5c-1.7 0-3.1 1.4-3.1 3.1 0 1.7 1.4 3.1 3.1 3.1s3.1-1.4 3.1-3.1c-.1-1.7-1.4-3.1-3.1-3.1z"/><path d="M0 147.4h23.8v1.4H0z"/></g><g fill="#05292F"><path d="M27.6 170.7c-2.5 0-4.5-2-4.5-4.5s2-4.5 4.5-4.5 4.5 2 4.5 4.5-2.1 4.5-4.5 4.5zm0-7.5c-1.7 0-3.1 1.4-3.1 3.1 0 1.7 1.4 3.1 3.1 3.1s3.1-1.4 3.1-3.1c-.1-1.7-1.4-3.1-3.1-3.1z"/><path d="M0 165.7h23.8v1.4H0z"/></g><g fill="#05292F"><path d="M27.6 189c-2.5 0-4.5-2-4.5-4.5s2-4.5 4.5-4.5 4.5 2 4.5 4.5-2.1 4.5-4.5 4.5zm0-7.5c-1.7 0-3.1 1.4-3.1 3.1 0 1.7 1.4 3.1 3.1 3.1s3.1-1.4 3.1-3.1c-.1-1.7-1.4-3.1-3.1-3.1z"/><path d="M0 184h23.8v1.4H0z"/></g><g fill="#05292F"><path d="M27.6 207.3c-2.5 0-4.5-2-4.5-4.5s2-4.5 4.5-4.5 4.5 2 4.5 4.5-2.1 4.5-4.5 4.5zm0-7.5c-1.7 0-3.1 1.4-3.1 3.1 0 1.7 1.4 3.1 3.1 3.1s3.1-1.4 3.1-3.1c-.1-1.7-1.4-3.1-3.1-3.1z"/><path d="M0 202.3h23.8v1.4H0z"/></g><path fill="#05292F" d="M144.1 220H38.6v-57.8h105.5V220zM40 218.6h102.6v-55H40v55z"/><g fill="#05292F"><path d="M185.1 42.8l-1.2-1.1c-.3-.3-.8-.6-1.4-.6h-3.8c-.7 0-1.1.3-1.4.6l-1.2 1.1v-9.2c0-2.5 2-4.5 4.5-4.5 1.2 0 2.3.5 3.2 1.3.9.9 1.3 2 1.3 3.2v9.2zm-6.4-3.1h3.8c.4 0 .8.1 1.2.2v-6.3c0-.8-.3-1.6-.9-2.2-.6-.6-1.4-.9-2.2-.9-1.7 0-3.1 1.4-3.1 3.1v6.3c.3-.2.7-.2 1.2-.2zm7.1 122.4h-10.4V47.3h1.4v113.4h7.6V47.3h1.4z"/><path d="M182.7 180.1h-4.2l-3.2-19.4H186l-3.3 19.4zm-3-1.4h1.8l2.8-16.6H177l2.7 16.6zm1.1-85.3h-.3c-1.9 0-3.4-1.5-3.4-3.4l-1.8-46.8c0-1 .4-1.9 1.1-2.5.7-.6 1.5-1 2.4-1h3.8c.9 0 1.7.3 2.4 1s1.1 1.5 1.1 2.5l-1.8 47.1c-.2 1.8-1.6 3.1-3.5 3.1zm-2.1-52.3c-.7 0-1.1.3-1.4.6-.4.4-.6.9-.6 1.5l1.8 46.8c0 1.1.9 2.1 2 2.1h.3c1.1 0 1.9-.8 1.9-1.8l1.8-47.1c0-.5-.2-1.1-.6-1.4-.3-.3-.7-.6-1.4-.6h-3.8z"/></g></svg>