<?xml version="1.0" encoding="utf-8"?><svg xmlns="http://www.w3.org/2000/svg" viewBox="0 0 165 174.1"><path d="M128.9 152.7v15.4L36 168v-15.3h-6V174l105 .1v-4.4h.1v-17zM133.2 0h-25l-.4 2.5C105.8 15 95.1 24 82.5 24c-12.7 0-23.3-9-25.4-21.5L56.6 0H31.8L0 31.8V75h23.7v-6H6V34.2L34.2 6h17.4c2.9 11.6 12 20.4 23.3 23.1h14.9c11.4-2.7 20.5-11.5 23.3-23.1h17.5L159 34.2v34.9l-20.7-.1v6l26.7.1V31.8L133.2 0z" fill="#06292F"/><path fill="#06292F" d="M141 155.5H21V26.4h120v129.1zM26.5 150h109V31.9h-109V150z"/><path fill="#06292F" d="M117.3 87.2H44.7V52h72.6v35.2zm-67.1-5.5h61.6V57.5H50.2v24.2z"/><path fill="#06292F" d="M55.7 83.2h5.5v41.3h-5.5zm45.1 0h5.5v41.3h-5.5zM70.7 94.5h5.5v23.2h-5.5zm15.1 0h5.5v12.7h-5.5z"/></svg>