<?xml version="1.0" encoding="utf-8"?><svg xmlns="http://www.w3.org/2000/svg" viewBox="0 0 124 124"><g fill="#010101"><path d="M86 18.2C67.3-.5 36.9-.5 18.1 18.2-.6 36.9-.6 67.3 18.2 86c18.1 18.1 47.2 18.6 66 1.7l12.6 12.6 3.6 3.6 14.3 14.3 3.6-3.6-14.3-14.3-3.6-3.6-12.7-12.6c16.9-18.8 16.4-47.8-1.7-65.9m-3.6 64.2c-16.7 16.7-44 16.7-60.7 0C5 65.7 5 38.5 21.7 21.7 38.5 5 65.7 5 82.4 21.7c16.8 16.8 16.8 44 0 60.7"/><path d="M114.6 124L83.9 93.3c-20.6 15.9-50 14.3-68.6-4.4C-5 68.6-5 35.5 15.3 15.2 35.6-5.1 68.7-5.1 89 15.2c18.7 18.6 20.3 48.1 4.4 68.6l30.7 30.7-9.5 9.5zM52.1 13.3c-9.9 0-19.9 3.8-27.4 11.3-7.4 7.4-11.4 17.1-11.4 27.5 0 10.4 4 20.1 11.3 27.4 15.1 15.1 39.7 15.1 54.9 0 7.3-7.3 11.3-17.1 11.3-27.4s-4-20.1-11.3-27.4C72 17.1 62 13.3 52.1 13.3z"/></g></svg>