<?xml version="1.0" encoding="utf-8"?><svg xmlns="http://www.w3.org/2000/svg" viewBox="0 0 94.4 156.8"><path fill="#231F20" d="M94.4 156.8H0V57.5l2.2-.5c9.7-2.2 17.7-11.8 17.7-21.5h5.6c0 12 9.8 21.8 21.7 21.8 12 0 21.8-9.8 21.8-21.8h5.6c0 4.8 1.9 9.7 5.3 13.7 3.3 3.9 7.8 6.7 12.4 7.7l2.2.5v99.4zm-88.8-5.6h83.2V61.9c-5-1.6-9.7-4.7-13.2-9-1.5-1.7-2.7-3.6-3.7-5.5C67.5 56.6 58.1 63 47.2 63c-10.9 0-20.3-6.4-24.7-15.6-3.4 6.7-9.6 12.2-16.9 14.5v89.3z"/><path fill="#231F20" d="M19.8.2h5.6v35.4h-5.6zM69 0h5.6v35.5H69z"/></svg>