<?xml version="1.0" encoding="utf-8"?><svg xmlns="http://www.w3.org/2000/svg" viewBox="0 0 96.3 159.6"><path fill="#231F20" d="M96.3 159.6L0 159.5V63.2l2.2-.5c9.9-2.2 17.1-11.2 17.1-21.4S12.1 22.1 2.2 19.9L0 19.4V0h24.5l.4 2.3C26.8 13.7 36.5 22 48.1 22s21.3-8.3 23.2-19.6l.4-2.4h24.6v19.4l-2.2.5C84.2 22.1 77 31.1 77 41.3s7.2 19.2 17.1 21.4l2.2.5v96.4zm-90.7-5.7l85.1.1V67.6C79.3 64 71.5 53.5 71.5 41.3c0-12 8-22.7 19.2-26.3V5.6H76.4c-3.2 12.9-14.7 22-28.3 22-13.5 0-25.1-9.1-28.3-22H5.6V15c11.3 3.6 19.2 14.3 19.2 26.3C24.8 53.5 17 64 5.6 67.6v86.3z"/></svg>