<?xml version="1.0" encoding="utf-8"?><svg xmlns="http://www.w3.org/2000/svg" viewBox="0 0 162.4 101.5"><path fill="#231F20" d="M81.2 101.5c-20.7 0-31.2-2.9-41.3-5.7-10.3-2.8-20-5.5-39.9-5.5v-5.6c20.7 0 31.2 2.9 41.3 5.7 10.3 2.8 19.9 5.5 39.9 5.5s29.6-2.7 39.9-5.5c10.2-2.8 20.7-5.7 41.3-5.7v5.6c-19.9 0-29.6 2.7-39.9 5.5-10.1 2.8-20.6 5.7-41.3 5.7zm-6.1-24c-8.8 0-16-7.1-16.1-15.9 0-3.3.9-6.4 2.7-9.2l13-20.5 13.5 20.3c1.8 2.6 2.9 5.8 2.9 9.1.1 4.3-1.6 8.4-4.6 11.4-3 3.1-7 4.8-11.3 4.8h-.1zm-.2-35.3l-8.4 13.3c-1.2 1.8-1.9 3.9-1.8 6.1.1 5.7 4.8 10.4 10.5 10.4v2.8l.1-2.8c2.8 0 5.4-1.2 7.4-3.2s3-4.6 3-7.4c0-2.1-.7-4.2-1.9-6l-8.9-13.2zm29.9 3.4c-8.8 0-16-7.1-16.1-15.9 0-3.3.9-6.4 2.7-9.2l13-20.5 13.5 20.3c1.9 2.6 2.9 5.8 2.9 9.1.1 4.3-1.6 8.4-4.6 11.4-3 3.1-7 4.8-11.3 4.8h-.1zm-.3-35.3l-8.4 13.3c-1.2 1.8-1.8 3.9-1.8 6.1 0 5.7 4.7 10.3 10.5 10.3v2.8l.1-2.8c2.8 0 5.4-1.2 7.4-3.2s3-4.7 3-7.5c0-2.1-.7-4.2-1.9-6l-8.9-13z"/></svg>