<?xml version="1.0" encoding="utf-8"?><svg xmlns="http://www.w3.org/2000/svg" viewBox="0 0 154 131.7"><path fill="#231F20" d="M77 131.7c-19.6 0-29.6-2.8-39.2-5.4C28 123.6 18.9 121 0 121v-5.6c19.6 0 29.6 2.8 39.2 5.4 9.7 2.7 18.9 5.2 37.8 5.2s28-2.5 37.8-5.2c9.6-2.7 19.6-5.4 39.2-5.4v5.6c-18.9 0-28 2.5-37.8 5.2-9.6 2.7-19.6 5.5-39.2 5.5zm-7.7-23.4c-10.5 0-19-8.5-19-19 0-8.7 7.1-15.8 15.8-15.8 7.3 0 13.2 5.9 13.2 13.2 0 6.1-5 11.1-11.1 11.1v-5.6c3 0 5.5-2.5 5.5-5.5 0-4.2-3.4-7.6-7.6-7.6-5.6 0-10.2 4.6-10.2 10.2 0 7.4 6 13.4 13.4 13.4 4.4 0 7.2-.7 11.1-4.5l58.3-61 4 3.9-58.4 61.1c-5.2 5.2-9.5 6.1-15 6.1zm11.3-47.8c-9.1 0-16.4-7.4-16.4-16.4 0-7.6 6.1-13.7 13.7-13.7 6.3 0 11.5 5.2 11.5 11.5 0 5.4-4.4 9.8-9.8 9.8v-5.6c2.3 0 4.2-1.9 4.2-4.2 0-3.3-2.7-5.9-5.9-5.9-4.5 0-8.1 3.6-8.1 8.1 0 6 4.9 10.8 10.8 10.8 3.6 0 5.8-.5 9-3.6L138.7 0l4 3.9-49.1 51.4c-4.5 4.4-8.3 5.2-13 5.2z"/></svg>